<mxfile host="Electron" modified="2023-10-23T07:38:12.689Z" agent="Mozilla/5.0 (Windows NT 10.0; Win64; x64) AppleWebKit/537.36 (KHTML, like Gecko) draw.io/22.0.3 Chrome/114.0.5735.289 Electron/25.8.4 Safari/537.36" etag="cIQ1TZ9PvRBNrkdR_a1M" version="22.0.3" type="device">
  <diagram name="sqlite compose" id="IbVtO-JwVwPRZ4UI1ymO">
    <mxGraphModel dx="3886" dy="1804" grid="1" gridSize="10" guides="1" tooltips="1" connect="1" arrows="1" fold="1" page="0" pageScale="1" pageWidth="1169" pageHeight="827" background="#808080" math="0" shadow="0">
      <root>
        <mxCell id="0" />
        <mxCell id="1" parent="0" />
        <mxCell id="YiPA6Wj24eaQREkGzXAe-1" value="&lt;div style=&quot;background-color:#000000;color:#ebebeb;font-family:&#39;JetBrains Mono&#39;,monospace;font-size:9.8pt;&quot;&gt;&lt;pre&gt;&lt;div style=&quot;font-family: Consolas, monospace; font-size: 9.8pt;&quot;&gt;&lt;pre&gt;class &lt;span style=&quot;color:#ffffff;&quot;&gt;DalApp &lt;/span&gt;: Application() {&lt;br/&gt;&lt;br&gt;    &lt;span style=&quot;color:#ed864a;&quot;&gt;private val &lt;/span&gt;&lt;span style=&quot;color:#ed94ff;&quot;&gt;database &lt;/span&gt;&lt;span style=&quot;color:#ed864a;&quot;&gt;by &lt;/span&gt;&lt;span style=&quot;font-style:italic;&quot;&gt;lazy &lt;/span&gt;&lt;span style=&quot;font-weight:bold;&quot;&gt;{ &lt;/span&gt;&lt;span style=&quot;color:#ffffff;&quot;&gt;DalDataBase&lt;/span&gt;.getDatabase(&lt;span style=&quot;color:#ed864a;&quot;&gt;this&lt;/span&gt;) &lt;span style=&quot;font-weight:bold;&quot;&gt;}&lt;br&gt;&lt;/span&gt;&lt;span style=&quot;font-weight:bold;&quot;&gt;    &lt;/span&gt;&lt;span style=&quot;color:#ed864a;&quot;&gt;val &lt;/span&gt;&lt;span style=&quot;color:#ed94ff;&quot;&gt;repo &lt;/span&gt;&lt;span style=&quot;color:#ed864a;&quot;&gt;by &lt;/span&gt;&lt;span style=&quot;font-style:italic;&quot;&gt;lazy &lt;/span&gt;&lt;span style=&quot;font-weight:bold;&quot;&gt;{ &lt;/span&gt;DalRepository(&lt;span style=&quot;color:#ed94ff;&quot;&gt;database&lt;/span&gt;.dalDao()) &lt;span style=&quot;font-weight:bold;&quot;&gt;}&lt;br&gt;&lt;/span&gt;&lt;span style=&quot;font-weight:bold;&quot;&gt;&lt;br&gt;&lt;/span&gt;&lt;span style=&quot;font-weight:bold;&quot;&gt;    &lt;/span&gt;&lt;span style=&quot;color:#ed864a;&quot;&gt;init &lt;/span&gt;{&lt;br&gt;        &lt;span style=&quot;color:#ffffff;&quot;&gt;Log&lt;/span&gt;.i(&lt;span style=&quot;color:#54b33e;&quot;&gt;&quot;--==&amp;gt;&quot;&lt;/span&gt;&lt;span style=&quot;color:#ed864a;font-weight:bold;&quot;&gt;, &lt;/span&gt;&lt;span style=&quot;color:#54b33e;&quot;&gt;&quot;DalApplication: init &quot;&lt;/span&gt;)&lt;br&gt;&lt;span style=&quot;color:#7ec3e6;&quot;&gt;    &lt;/span&gt;}&lt;br&gt;}&lt;/pre&gt;&lt;/div&gt;&lt;/pre&gt;&lt;/div&gt;" style="text;whiteSpace=wrap;html=1;fillColor=#000000;spacing=10;" parent="1" vertex="1">
          <mxGeometry x="-680" y="-120" width="540" height="180" as="geometry" />
        </mxCell>
        <mxCell id="YiPA6Wj24eaQREkGzXAe-2" value="&lt;font style=&quot;font-size: 18px;&quot; face=&quot;consolas&quot;&gt;&lt;b&gt;DalApplication&lt;/b&gt;&lt;/font&gt;" style="rounded=0;whiteSpace=wrap;html=1;" parent="1" vertex="1">
          <mxGeometry x="-680" y="-160" width="540" height="40" as="geometry" />
        </mxCell>
        <mxCell id="YiPA6Wj24eaQREkGzXAe-3" value="&lt;div style=&quot;background-color:#000000;color:#ebebeb;font-family:&#39;JetBrains Mono&#39;,monospace;font-size:9.8pt;&quot;&gt;&lt;pre&gt;&lt;div style=&quot;font-family: Consolas, monospace; font-size: 9.8pt;&quot;&gt;&lt;pre&gt;class &lt;span style=&quot;color:#ffffff;&quot;&gt;MainActivity &lt;/span&gt;: ComponentActivity() {&lt;br&gt;    &lt;span style=&quot;color:#ed864a;&quot;&gt;override fun &lt;/span&gt;&lt;span style=&quot;color:#ffcf40;&quot;&gt;onCreate&lt;/span&gt;(&lt;span style=&quot;color:#ffffff;&quot;&gt;savedInstanceState&lt;/span&gt;: &lt;span style=&quot;color:#ffffff;&quot;&gt;Bundle&lt;/span&gt;?) {&lt;br&gt;        &lt;span style=&quot;color:#ed864a;&quot;&gt;super&lt;/span&gt;.onCreate(&lt;span style=&quot;color:#ffffff;&quot;&gt;savedInstanceState&lt;/span&gt;)&lt;br&gt;        &lt;span style=&quot;color:#ffc66d;font-style:italic;&quot;&gt;setContent &lt;/span&gt;&lt;span style=&quot;font-weight:bold;&quot;&gt;{&lt;br&gt;&lt;/span&gt;&lt;span style=&quot;font-weight:bold;&quot;&gt;            &lt;/span&gt;&lt;span style=&quot;color:#6bb38a;&quot;&gt;DalTheme &lt;/span&gt;&lt;span style=&quot;font-weight:bold;&quot;&gt;{&lt;br/&gt;&lt;br&gt;&lt;/span&gt;&lt;span style=&quot;font-weight:bold;&quot;&gt;                &lt;/span&gt;&lt;span style=&quot;color:#ed864a;&quot;&gt;val &lt;/span&gt;&lt;span style=&quot;color:#ffffff;&quot;&gt;owner &lt;/span&gt;= &lt;span style=&quot;color:#ffffff;&quot;&gt;LocalViewModelStoreOwner&lt;/span&gt;.&lt;span style=&quot;color:#6bb38a;&quot;&gt;current&lt;br&gt;&lt;/span&gt;&lt;span style=&quot;color:#6bb38a;&quot;&gt;                &lt;/span&gt;&lt;span style=&quot;color:#ed864a;&quot;&gt;val &lt;/span&gt;&lt;span style=&quot;color:#ffffff;&quot;&gt;repo &lt;/span&gt;= (&lt;span style=&quot;color:#ed94ff;font-style:italic;&quot;&gt;application &lt;/span&gt;&lt;span style=&quot;color:#ed864a;&quot;&gt;as &lt;/span&gt;&lt;span style=&quot;color:#ffffff;&quot;&gt;DalApp&lt;/span&gt;).&lt;span style=&quot;color:#ed94ff;&quot;&gt;repo&lt;br/&gt;&lt;br&gt;&lt;/span&gt;&lt;span style=&quot;color:#ed94ff;&quot;&gt;                &lt;/span&gt;&lt;span style=&quot;color:#6bb38a;&quot;&gt;Surface&lt;/span&gt;(&lt;br&gt;                    &lt;span style=&quot;color:#00aaff;font-weight:bold;&quot;&gt;modifier = &lt;/span&gt;&lt;span style=&quot;color:#ffffff;&quot;&gt;Modifier&lt;/span&gt;.&lt;span style=&quot;color:#ffc66d;font-style:italic;&quot;&gt;fillMaxSize&lt;/span&gt;()&lt;span style=&quot;color:#ed864a;font-weight:bold;&quot;&gt;,&lt;br&gt;&lt;/span&gt;&lt;span style=&quot;color:#ed864a;font-weight:bold;&quot;&gt;                    &lt;/span&gt;&lt;span style=&quot;color:#00aaff;font-weight:bold;&quot;&gt;color = &lt;/span&gt;&lt;span style=&quot;color:#ffffff;&quot;&gt;MaterialTheme&lt;/span&gt;.&lt;span style=&quot;color:#ed94ff;&quot;&gt;colorScheme&lt;/span&gt;.&lt;span style=&quot;color:#ed94ff;&quot;&gt;background&lt;br&gt;&lt;/span&gt;&lt;span style=&quot;color:#ed94ff;&quot;&gt;                &lt;/span&gt;) &lt;span style=&quot;font-weight:bold;&quot;&gt;{&lt;br&gt;&lt;/span&gt;&lt;span style=&quot;font-weight:bold;&quot;&gt;                    &lt;/span&gt;&lt;span style=&quot;color:#ffffff;&quot;&gt;owner&lt;/span&gt;?.&lt;span style=&quot;color:#ffc66d;font-style:italic;&quot;&gt;let &lt;/span&gt;&lt;span style=&quot;font-weight:bold;&quot;&gt;{&lt;br&gt;&lt;/span&gt;&lt;span style=&quot;font-weight:bold;&quot;&gt;                        &lt;/span&gt;&lt;span style=&quot;color:#ed864a;&quot;&gt;val &lt;/span&gt;&lt;span style=&quot;color:#ffffff;&quot;&gt;viewModel&lt;/span&gt;: &lt;span style=&quot;color:#ffffff;&quot;&gt;DalViewModel &lt;/span&gt;= &lt;span style=&quot;color:#6bb38a;&quot;&gt;viewModel&lt;/span&gt;(&lt;br&gt;                            &lt;span style=&quot;font-weight:bold;&quot;&gt;it&lt;/span&gt;&lt;span style=&quot;color:#ed864a;font-weight:bold;&quot;&gt;,&lt;br&gt;&lt;/span&gt;&lt;span style=&quot;color:#ed864a;font-weight:bold;&quot;&gt;                            &lt;/span&gt;&lt;span style=&quot;color:#54b33e;&quot;&gt;&quot;CookViewModel&quot;&lt;/span&gt;&lt;span style=&quot;color:#ed864a;font-weight:bold;&quot;&gt;,&lt;br&gt;&lt;/span&gt;&lt;span style=&quot;color:#ed864a;font-weight:bold;&quot;&gt;                            &lt;/span&gt;DalViewModelFactory(&lt;span style=&quot;color:#ffffff;&quot;&gt;repo&lt;/span&gt;)&lt;br&gt;                        )&lt;br&gt;                        &lt;span style=&quot;color:#6bb38a;&quot;&gt;ScreenMain&lt;/span&gt;(&lt;span style=&quot;color:#ffffff;&quot;&gt;viewModel&lt;/span&gt;)&lt;br&gt;                    &lt;span style=&quot;font-weight:bold;&quot;&gt;}&lt;br&gt;&lt;/span&gt;&lt;span style=&quot;font-weight:bold;&quot;&gt;                }&lt;br&gt;&lt;/span&gt;&lt;span style=&quot;font-weight:bold;&quot;&gt;            }&lt;br&gt;&lt;/span&gt;&lt;span style=&quot;font-weight:bold;&quot;&gt;        }&lt;br&gt;&lt;/span&gt;&lt;span style=&quot;font-weight:bold;&quot;&gt;    &lt;/span&gt;}&lt;br&gt;}&lt;/pre&gt;&lt;/div&gt;&lt;/pre&gt;&lt;/div&gt;" style="text;whiteSpace=wrap;html=1;fillColor=#000000;spacing=10;" parent="1" vertex="1">
          <mxGeometry x="-80" y="-120" width="530" height="440" as="geometry" />
        </mxCell>
        <mxCell id="YiPA6Wj24eaQREkGzXAe-4" value="&lt;font face=&quot;consolas&quot;&gt;&lt;b style=&quot;font-size: 18px;&quot;&gt;MainActivity&lt;/b&gt;&lt;/font&gt;" style="rounded=0;whiteSpace=wrap;html=1;" parent="1" vertex="1">
          <mxGeometry x="-80" y="-160" width="530" height="40" as="geometry" />
        </mxCell>
        <mxCell id="YiPA6Wj24eaQREkGzXAe-8" value="&lt;div style=&quot;background-color:#000000;color:#ebebeb;font-family:&#39;Consolas&#39;,monospace;font-size:10.5pt;&quot;&gt;&lt;pre&gt;&lt;div style=&quot;font-family: Consolas, monospace; font-size: 9.8pt;&quot;&gt;&lt;pre&gt;@Composable&lt;br&gt;&lt;span style=&quot;color:#ed864a;&quot;&gt;fun &lt;/span&gt;&lt;span style=&quot;color:#ffcf40;&quot;&gt;ScreenMain&lt;/span&gt;(&lt;span style=&quot;color:#ffffff;&quot;&gt;vm&lt;/span&gt;: &lt;span style=&quot;color:#ffffff;&quot;&gt;DalViewModel&lt;/span&gt;) {&lt;br&gt;&lt;span style=&quot;color:#7ec3e6;&quot;&gt;&lt;br&gt;&lt;/span&gt;&lt;span style=&quot;color:#7ec3e6;&quot;&gt;    &lt;/span&gt;&lt;span style=&quot;color:#ed864a;&quot;&gt;var &lt;/span&gt;&lt;span style=&quot;color:#ffffff;&quot;&gt;data&lt;/span&gt;: &lt;span style=&quot;color:#ffffff;&quot;&gt;List&lt;/span&gt;&amp;lt;&lt;span style=&quot;color:#ffffff;&quot;&gt;Proverb&lt;/span&gt;&amp;gt; &lt;span style=&quot;color:#ed864a;&quot;&gt;by &lt;/span&gt;&lt;span style=&quot;color:#6bb38a;&quot;&gt;rememberSaveable &lt;/span&gt;&lt;span style=&quot;font-weight:bold;&quot;&gt;{&lt;br&gt;&lt;/span&gt;&lt;span style=&quot;font-weight:bold;&quot;&gt;        &lt;/span&gt;&lt;span style=&quot;font-style:italic;&quot;&gt;mutableStateOf&lt;/span&gt;(&lt;span style=&quot;font-style:italic;&quot;&gt;listOf&lt;/span&gt;())&lt;br&gt;    &lt;span style=&quot;font-weight:bold;&quot;&gt;}&lt;br&gt;&lt;/span&gt;&lt;span style=&quot;font-weight:bold;&quot;&gt;&lt;br&gt;&lt;/span&gt;&lt;span style=&quot;font-weight:bold;&quot;&gt;    &lt;/span&gt;&lt;span style=&quot;color:#ed864a;&quot;&gt;var &lt;/span&gt;&lt;span style=&quot;color:#ffffff;&quot;&gt;filterText &lt;/span&gt;&lt;span style=&quot;color:#ed864a;&quot;&gt;by &lt;/span&gt;&lt;span style=&quot;color:#6bb38a;&quot;&gt;remember &lt;/span&gt;&lt;span style=&quot;font-weight:bold;&quot;&gt;{ &lt;/span&gt;&lt;span style=&quot;font-style:italic;&quot;&gt;mutableStateOf&lt;/span&gt;(TextFieldValue()) &lt;span style=&quot;font-weight:bold;&quot;&gt;}&lt;br&gt;&lt;/span&gt;&lt;span style=&quot;font-weight:bold;&quot;&gt;&lt;br&gt;&lt;/span&gt;&lt;span style=&quot;font-weight:bold;&quot;&gt;    &lt;/span&gt;&lt;span style=&quot;color:#ffffff;&quot;&gt;data &lt;/span&gt;= &lt;span style=&quot;color:#ffffff;&quot;&gt;vm&lt;/span&gt;.&lt;span style=&quot;color:#ed94ff;&quot;&gt;allProverbs&lt;/span&gt;.&lt;span style=&quot;color:#6bb38a;&quot;&gt;observeAsState&lt;/span&gt;(&lt;span style=&quot;font-style:italic;&quot;&gt;listOf&lt;/span&gt;()).&lt;span style=&quot;color:#ed94ff;&quot;&gt;value&lt;br&gt;&lt;/span&gt;&lt;span style=&quot;color:#7ec3e6;&quot;&gt;&lt;br&gt;&lt;/span&gt;&lt;span style=&quot;color:#7ec3e6;&quot;&gt;    &lt;/span&gt;&lt;span style=&quot;color:#ed864a;&quot;&gt;if &lt;/span&gt;(&lt;span style=&quot;color:#ffffff;&quot;&gt;data&lt;/span&gt;.isEmpty()) {&lt;br&gt;&lt;span style=&quot;color:#7ec3e6;&quot;&gt;          &lt;/span&gt;&lt;span style=&quot;color:#6bb38a;&quot;&gt;Column &lt;/span&gt;&lt;span style=&quot;font-weight:bold;&quot;&gt;{&lt;br&gt;&lt;/span&gt;&lt;span style=&quot;font-weight:bold;&quot;&gt;              &lt;/span&gt;&lt;span style=&quot;color:#6bb38a;&quot;&gt;CircularProgressIndicator&lt;/span&gt;(&lt;br&gt;                  &lt;span style=&quot;color:#00aaff;font-weight:bold;&quot;&gt;modifier = &lt;/span&gt;&lt;span style=&quot;color:#ffffff;&quot;&gt;Modifier&lt;/span&gt;.&lt;span style=&quot;color:#ffc66d;font-style:italic;&quot;&gt;width&lt;/span&gt;(&lt;span style=&quot;color:#33ccff;font-weight:bold;&quot;&gt;64&lt;/span&gt;.&lt;span style=&quot;color:#ed94ff;font-style:italic;&quot;&gt;dp&lt;/span&gt;)&lt;span style=&quot;color:#ed864a;font-weight:bold;&quot;&gt;,&lt;br&gt;&lt;/span&gt;&lt;span style=&quot;color:#ed864a;font-weight:bold;&quot;&gt;                  &lt;/span&gt;&lt;span style=&quot;color:#00aaff;font-weight:bold;&quot;&gt;color = &lt;/span&gt;&lt;span style=&quot;color:#ffffff;&quot;&gt;MaterialTheme&lt;/span&gt;.&lt;span style=&quot;color:#6bb38a;&quot;&gt;colorScheme&lt;/span&gt;.&lt;span style=&quot;color:#ed94ff;&quot;&gt;surfaceVariant&lt;/span&gt;&lt;span style=&quot;color:#ed864a;font-weight:bold;&quot;&gt;,&lt;br&gt;&lt;/span&gt;&lt;span style=&quot;color:#ed864a;font-weight:bold;&quot;&gt;                  &lt;/span&gt;&lt;span style=&quot;color:#00aaff;font-weight:bold;&quot;&gt;trackColor = &lt;/span&gt;&lt;span style=&quot;color:#ffffff;&quot;&gt;MaterialTheme&lt;/span&gt;.&lt;span style=&quot;color:#ed94ff;&quot;&gt;colorScheme&lt;/span&gt;.&lt;span style=&quot;color:#ed94ff;&quot;&gt;secondary&lt;/span&gt;&lt;span style=&quot;color:#ed864a;font-weight:bold;&quot;&gt;,&lt;br&gt;&lt;/span&gt;&lt;span style=&quot;color:#ed864a;font-weight:bold;&quot;&gt;              &lt;/span&gt;)&lt;br&gt;&lt;span style=&quot;color:#7ec3e6;&quot;&gt;          &lt;/span&gt;&lt;span style=&quot;font-weight:bold;&quot;&gt;}&lt;br&gt;&lt;/span&gt;&lt;span style=&quot;font-weight:bold;&quot;&gt;    &lt;/span&gt;} &lt;span style=&quot;color:#ed864a;&quot;&gt;else &lt;/span&gt;{&lt;br&gt;        &lt;span style=&quot;color:#6bb38a;&quot;&gt;Column &lt;/span&gt;&lt;span style=&quot;font-weight:bold;&quot;&gt;{&lt;br&gt;&lt;/span&gt;&lt;span style=&quot;font-weight:bold;&quot;&gt;            &lt;/span&gt;&lt;span style=&quot;color:#6bb38a;&quot;&gt;OutlinedTextField&lt;/span&gt;(&lt;br&gt;                &lt;span style=&quot;color:#00aaff;font-weight:bold;&quot;&gt;value = &lt;/span&gt;&lt;span style=&quot;color:#ffffff;&quot;&gt;filterText&lt;/span&gt;&lt;span style=&quot;color:#ed864a;font-weight:bold;&quot;&gt;,&lt;br&gt;&lt;/span&gt;&lt;span style=&quot;color:#ed864a;font-weight:bold;&quot;&gt;                &lt;/span&gt;&lt;span style=&quot;color:#00aaff;font-weight:bold;&quot;&gt;onValueChange = &lt;/span&gt;&lt;span style=&quot;font-weight:bold;&quot;&gt;{ &lt;/span&gt;&lt;span style=&quot;color:#ffffff;&quot;&gt;filterText &lt;/span&gt;= &lt;span style=&quot;font-weight:bold;&quot;&gt;it }&lt;/span&gt;&lt;span style=&quot;color:#ed864a;font-weight:bold;&quot;&gt;,&lt;br&gt;&lt;/span&gt;&lt;span style=&quot;color:#ed864a;font-weight:bold;&quot;&gt;                &lt;/span&gt;&lt;span style=&quot;color:#00aaff;font-weight:bold;&quot;&gt;modifier = &lt;/span&gt;&lt;span style=&quot;color:#ffffff;&quot;&gt;Modifier&lt;/span&gt;.&lt;span style=&quot;color:#ffc66d;font-style:italic;&quot;&gt;fillMaxWidth&lt;/span&gt;()&lt;span style=&quot;color:#ed864a;font-weight:bold;&quot;&gt;,&lt;br&gt;&lt;/span&gt;&lt;span style=&quot;color:#ed864a;font-weight:bold;&quot;&gt;                &lt;/span&gt;&lt;span style=&quot;color:#00aaff;font-weight:bold;&quot;&gt;label = &lt;/span&gt;&lt;span style=&quot;font-weight:bold;&quot;&gt;{ &lt;/span&gt;&lt;span style=&quot;color:#6bb38a;&quot;&gt;Text&lt;/span&gt;(&lt;span style=&quot;color:#54b33e;&quot;&gt;&quot;filter&quot;&lt;/span&gt;) &lt;span style=&quot;font-weight:bold;&quot;&gt;}&lt;/span&gt;&lt;span style=&quot;color:#ed864a;font-weight:bold;&quot;&gt;,&lt;br&gt;&lt;/span&gt;&lt;span style=&quot;color:#ed864a;font-weight:bold;&quot;&gt;                &lt;/span&gt;&lt;span style=&quot;color:#00aaff;font-weight:bold;&quot;&gt;singleLine = &lt;/span&gt;&lt;span style=&quot;color:#ed864a;&quot;&gt;true&lt;/span&gt;&lt;span style=&quot;color:#ed864a;font-weight:bold;&quot;&gt;,&lt;br&gt;&lt;/span&gt;&lt;span style=&quot;color:#ed864a;font-weight:bold;&quot;&gt;                &lt;/span&gt;&lt;span style=&quot;color:#00aaff;font-weight:bold;&quot;&gt;textStyle = &lt;/span&gt;TextStyle(&lt;br&gt;                    &lt;span style=&quot;color:#00aaff;font-weight:bold;&quot;&gt;color = &lt;/span&gt;&lt;span style=&quot;color:#ffffff;&quot;&gt;Color&lt;/span&gt;.&lt;span style=&quot;color:#ed94ff;&quot;&gt;Black&lt;/span&gt;&lt;span style=&quot;color:#ed864a;font-weight:bold;&quot;&gt;,&lt;br&gt;&lt;/span&gt;&lt;span style=&quot;color:#ed864a;font-weight:bold;&quot;&gt;                    &lt;/span&gt;&lt;span style=&quot;color:#00aaff;font-weight:bold;&quot;&gt;fontSize = &lt;/span&gt;&lt;span style=&quot;color:#33ccff;font-weight:bold;&quot;&gt;16&lt;/span&gt;.&lt;span style=&quot;color:#ed94ff;font-style:italic;&quot;&gt;sp&lt;/span&gt;&lt;span style=&quot;color:#ed864a;font-weight:bold;&quot;&gt;,&lt;br&gt;&lt;/span&gt;&lt;span style=&quot;color:#ed864a;font-weight:bold;&quot;&gt;                    &lt;/span&gt;&lt;span style=&quot;color:#00aaff;font-weight:bold;&quot;&gt;fontWeight = &lt;/span&gt;&lt;span style=&quot;color:#ffffff;&quot;&gt;FontWeight&lt;/span&gt;.&lt;span style=&quot;color:#ed94ff;&quot;&gt;Bold&lt;br&gt;&lt;/span&gt;&lt;span style=&quot;color:#ed94ff;&quot;&gt;                &lt;/span&gt;)&lt;span style=&quot;color:#ed864a;font-weight:bold;&quot;&gt;,&lt;br&gt;&lt;/span&gt;&lt;span style=&quot;color:#ed864a;font-weight:bold;&quot;&gt;            &lt;/span&gt;)&lt;br&gt;            &lt;span style=&quot;color:#6bb38a;&quot;&gt;LazyColumn&lt;/span&gt;(&lt;br&gt;                &lt;span style=&quot;color:#ffffff;&quot;&gt;Modifier&lt;br&gt;&lt;/span&gt;&lt;span style=&quot;color:#ffffff;&quot;&gt;                    &lt;/span&gt;.&lt;span style=&quot;color:#ffc66d;font-style:italic;&quot;&gt;background&lt;/span&gt;(&lt;span style=&quot;color:#ffffff;&quot;&gt;MaterialTheme&lt;/span&gt;.&lt;span style=&quot;color:#ed94ff;&quot;&gt;colorScheme&lt;/span&gt;.&lt;span style=&quot;color:#ed94ff;&quot;&gt;surface&lt;/span&gt;)&lt;br&gt;                    .&lt;span style=&quot;color:#ffc66d;font-style:italic;&quot;&gt;fillMaxWidth&lt;/span&gt;()&lt;br&gt;                    .&lt;span style=&quot;color:#ffc66d;font-style:italic;&quot;&gt;padding&lt;/span&gt;(&lt;span style=&quot;color:#33ccff;font-weight:bold;&quot;&gt;0&lt;/span&gt;.&lt;span style=&quot;color:#ed94ff;font-style:italic;&quot;&gt;dp&lt;/span&gt;)&lt;br&gt;            ) &lt;span style=&quot;font-weight:bold;&quot;&gt;{&lt;br&gt;&lt;/span&gt;&lt;span style=&quot;font-weight:bold;&quot;&gt;&lt;br&gt;&lt;/span&gt;&lt;span style=&quot;font-weight:bold;&quot;&gt;                &lt;/span&gt;&lt;span style=&quot;color:#ffc66d;font-style:italic;&quot;&gt;items&lt;/span&gt;(&lt;span style=&quot;font-style:italic;&quot;&gt;filterData&lt;/span&gt;(&lt;span style=&quot;color:#ffffff;&quot;&gt;data&lt;/span&gt;&lt;span style=&quot;color:#ed864a;font-weight:bold;&quot;&gt;, &lt;/span&gt;&lt;span style=&quot;color:#ffffff;&quot;&gt;filterText&lt;/span&gt;.&lt;span style=&quot;color:#ed94ff;&quot;&gt;text&lt;/span&gt;)) &lt;span style=&quot;font-weight:bold;&quot;&gt;{ &lt;/span&gt;&lt;span style=&quot;color:#ffffff;&quot;&gt;item &lt;/span&gt;&lt;span style=&quot;font-weight:bold;&quot;&gt;-&amp;gt;&lt;br&gt;&lt;/span&gt;&lt;span style=&quot;font-weight:bold;&quot;&gt;                    &lt;/span&gt;&lt;span style=&quot;color:#6bb38a;&quot;&gt;Text&lt;/span&gt;(&lt;span style=&quot;color:#00aaff;font-weight:bold;&quot;&gt;text = &lt;/span&gt;&lt;span style=&quot;color:#ffffff;&quot;&gt;item&lt;/span&gt;.&lt;span style=&quot;color:#ed94ff;&quot;&gt;text&lt;/span&gt;)&lt;br&gt;                &lt;span style=&quot;font-weight:bold;&quot;&gt;}&lt;br&gt;&lt;/span&gt;&lt;span style=&quot;font-weight:bold;&quot;&gt;            }&lt;br&gt;&lt;/span&gt;&lt;span style=&quot;font-weight:bold;&quot;&gt;        }&lt;br&gt;&lt;/span&gt;&lt;span style=&quot;font-weight:bold;&quot;&gt;    &lt;/span&gt;}&lt;br&gt;}&lt;/pre&gt;&lt;/div&gt;&lt;/pre&gt;&lt;/div&gt;" style="text;whiteSpace=wrap;html=1;fillColor=#000000;spacing=10;fontFamily=consolas;" parent="1" vertex="1">
          <mxGeometry x="-80" y="400" width="570" height="780" as="geometry" />
        </mxCell>
        <mxCell id="YiPA6Wj24eaQREkGzXAe-9" value="&lt;font face=&quot;consolas&quot;&gt;&lt;b style=&quot;font-size: 18px;&quot;&gt;ScreenMain&amp;nbsp;&lt;/b&gt;&lt;/font&gt;" style="rounded=0;whiteSpace=wrap;html=1;" parent="1" vertex="1">
          <mxGeometry x="-80" y="360" width="570" height="40" as="geometry" />
        </mxCell>
        <mxCell id="YiPA6Wj24eaQREkGzXAe-15" value="" style="curved=1;endArrow=classic;html=1;rounded=0;strokeColor=#FFFF33;strokeWidth=1;exitX=0.75;exitY=1;exitDx=0;exitDy=0;entryX=0;entryY=0.5;entryDx=0;entryDy=0;" parent="1" source="YiPA6Wj24eaQREkGzXAe-19" target="YiPA6Wj24eaQREkGzXAe-10" edge="1">
          <mxGeometry width="50" height="50" relative="1" as="geometry">
            <mxPoint x="10" y="810" as="sourcePoint" />
            <mxPoint x="60" y="760" as="targetPoint" />
            <Array as="points">
              <mxPoint x="400" y="300" />
            </Array>
          </mxGeometry>
        </mxCell>
        <mxCell id="YiPA6Wj24eaQREkGzXAe-16" value="" style="curved=1;endArrow=classic;html=1;rounded=0;strokeColor=#FFFF33;strokeWidth=1;exitX=0.75;exitY=0;exitDx=0;exitDy=0;entryX=0;entryY=0.25;entryDx=0;entryDy=0;" parent="1" source="YiPA6Wj24eaQREkGzXAe-20" target="YiPA6Wj24eaQREkGzXAe-12" edge="1">
          <mxGeometry width="50" height="50" relative="1" as="geometry">
            <mxPoint x="20" y="820" as="sourcePoint" />
            <mxPoint x="70" y="770" as="targetPoint" />
            <Array as="points">
              <mxPoint x="480" y="-30" />
            </Array>
          </mxGeometry>
        </mxCell>
        <mxCell id="YiPA6Wj24eaQREkGzXAe-17" value="" style="curved=1;endArrow=classic;html=1;rounded=0;strokeColor=#FFFF33;strokeWidth=1;exitX=0.5;exitY=1;exitDx=0;exitDy=0;entryX=0.5;entryY=0;entryDx=0;entryDy=0;" parent="1" source="YiPA6Wj24eaQREkGzXAe-22" target="YiPA6Wj24eaQREkGzXAe-9" edge="1">
          <mxGeometry width="50" height="50" relative="1" as="geometry">
            <mxPoint x="30" y="830" as="sourcePoint" />
            <mxPoint x="80" y="780" as="targetPoint" />
            <Array as="points">
              <mxPoint x="210" y="290" />
            </Array>
          </mxGeometry>
        </mxCell>
        <mxCell id="YiPA6Wj24eaQREkGzXAe-19" value="" style="rounded=0;whiteSpace=wrap;html=1;fillColor=none;strokeColor=#FFFF33;" parent="1" vertex="1">
          <mxGeometry x="146" y="173" width="208" height="16" as="geometry" />
        </mxCell>
        <mxCell id="YiPA6Wj24eaQREkGzXAe-20" value="" style="rounded=0;whiteSpace=wrap;html=1;fillColor=none;strokeColor=#FFFF33;" parent="1" vertex="1">
          <mxGeometry x="231" y="126" width="103" height="16" as="geometry" />
        </mxCell>
        <mxCell id="YiPA6Wj24eaQREkGzXAe-22" value="" style="rounded=0;whiteSpace=wrap;html=1;fillColor=none;strokeColor=#FFFF33;" parent="1" vertex="1">
          <mxGeometry x="114" y="204" width="170" height="17" as="geometry" />
        </mxCell>
        <mxCell id="XZHRbtSJYfs60_z20I25-1" value="&lt;div style=&quot;background-color:#000000;color:#ebebeb;font-family:&#39;JetBrains Mono&#39;,monospace;font-size:9.8pt;&quot;&gt;&lt;pre&gt;&lt;div style=&quot;font-family: Consolas, monospace; font-size: 9.8pt;&quot;&gt;&lt;pre&gt;&lt;div style=&quot;font-family: Consolas, monospace; font-size: 9.8pt;&quot;&gt;&lt;pre&gt;fun &lt;span style=&quot;color:#ffcf40;&quot;&gt;filterData&lt;/span&gt;(&lt;span style=&quot;color:#ffffff;&quot;&gt;data&lt;/span&gt;: &lt;span style=&quot;color:#ffffff;&quot;&gt;List&lt;/span&gt;&amp;lt;&lt;span style=&quot;color:#ffffff;&quot;&gt;Proverb&lt;/span&gt;&amp;gt;&lt;span style=&quot;color:#ed864a;font-weight:bold;&quot;&gt;, &lt;/span&gt;&lt;span style=&quot;color:#ffffff;&quot;&gt;filter&lt;/span&gt;: &lt;span style=&quot;color:#ffffff;&quot;&gt;String&lt;/span&gt;): &lt;span style=&quot;color:#ffffff;&quot;&gt;List&lt;/span&gt;&amp;lt;&lt;span style=&quot;color:#ffffff;&quot;&gt;Proverb&lt;/span&gt;&amp;gt; {&lt;br&gt;    &lt;span style=&quot;color:#ed864a;&quot;&gt;return &lt;/span&gt;&lt;span style=&quot;color:#ffffff;&quot;&gt;data&lt;/span&gt;.&lt;span style=&quot;color:#ffc66d;font-style:italic;&quot;&gt;filter &lt;/span&gt;&lt;span style=&quot;font-weight:bold;&quot;&gt;{ &lt;br/&gt;&lt;/span&gt;&lt;span style=&quot;color:#ffffff;&quot;&gt;&lt;span style=&quot;white-space: pre;&quot;&gt;&#x9;&lt;/span&gt;item &lt;/span&gt;&lt;span style=&quot;font-weight:bold;&quot;&gt;-&amp;gt; &lt;/span&gt;&lt;span style=&quot;color:#ffffff;&quot;&gt;item&lt;/span&gt;.&lt;span style=&quot;color:#ed94ff;&quot;&gt;text&lt;/span&gt;.&lt;span style=&quot;color:#ffc66d;font-style:italic;&quot;&gt;contains&lt;/span&gt;(&lt;span style=&quot;color:#ffffff;&quot;&gt;filter&lt;/span&gt;&lt;span style=&quot;color:#ed864a;font-weight:bold;&quot;&gt;, &lt;/span&gt;&lt;span style=&quot;color:#00aaff;font-weight:bold;&quot;&gt;ignoreCase = &lt;/span&gt;&lt;span style=&quot;color:#ed864a;&quot;&gt;true&lt;/span&gt;) &lt;span style=&quot;font-weight:bold;&quot;&gt;}&lt;br&gt;&lt;/span&gt;}&lt;/pre&gt;&lt;/div&gt;&lt;/pre&gt;&lt;/div&gt;&lt;/pre&gt;&lt;/div&gt;" style="text;whiteSpace=wrap;html=1;fillColor=#000000;spacing=10;" vertex="1" parent="1">
          <mxGeometry x="-670" y="1000" width="550" height="110" as="geometry" />
        </mxCell>
        <mxCell id="XZHRbtSJYfs60_z20I25-2" value="&lt;font style=&quot;font-size: 18px;&quot; face=&quot;consolas&quot;&gt;&lt;b&gt;filterData&lt;/b&gt;&lt;/font&gt;" style="rounded=0;whiteSpace=wrap;html=1;" vertex="1" parent="1">
          <mxGeometry x="-670" y="960" width="550" height="40" as="geometry" />
        </mxCell>
        <mxCell id="XZHRbtSJYfs60_z20I25-3" value="" style="group" vertex="1" connectable="0" parent="1">
          <mxGeometry x="560" y="-160" width="610" height="350" as="geometry" />
        </mxCell>
        <mxCell id="YiPA6Wj24eaQREkGzXAe-12" value="&lt;div style=&quot;background-color:#000000;color:#ebebeb;font-family:&#39;Consolas&#39;,monospace;font-size:10.5pt;&quot;&gt;&lt;pre&gt;&lt;div style=&quot;font-family: Consolas, monospace; font-size: 9.8pt;&quot;&gt;&lt;pre&gt;class &lt;span style=&quot;color:#ffffff;&quot;&gt;DalViewModel&lt;/span&gt;(&lt;span style=&quot;color:#ffffff;&quot;&gt;repository&lt;/span&gt;: &lt;span style=&quot;color:#ffffff;&quot;&gt;DalRepository&lt;/span&gt;) : ViewModel() {&lt;br&gt;&lt;br&gt;    &lt;span style=&quot;color:#ed864a;&quot;&gt;private val &lt;/span&gt;&lt;span style=&quot;color:#ed94ff;&quot;&gt;_isLoading &lt;/span&gt;= &lt;span style=&quot;font-style:italic;&quot;&gt;MutableStateFlow&lt;/span&gt;(&lt;span style=&quot;color:#ed864a;&quot;&gt;true&lt;/span&gt;)&lt;br&gt;&lt;br&gt;    &lt;span style=&quot;color:#7ec3e6;&quot;&gt;//val isLoading: StateFlow&amp;lt;Boolean&amp;gt; = _isLoading&lt;br&gt;&lt;/span&gt;&lt;span style=&quot;color:#7ec3e6;&quot;&gt;&lt;br&gt;&lt;/span&gt;&lt;span style=&quot;color:#7ec3e6;&quot;&gt;    &lt;/span&gt;&lt;span style=&quot;color:#ed864a;&quot;&gt;val &lt;/span&gt;&lt;span style=&quot;color:#ed94ff;&quot;&gt;allProverbs &lt;/span&gt;: &lt;span style=&quot;color:#ffffff;&quot;&gt;LiveData&lt;/span&gt;&amp;lt;&lt;span style=&quot;color:#ffffff;&quot;&gt;List&lt;/span&gt;&amp;lt;&lt;span style=&quot;color:#ffffff;&quot;&gt;Proverb&lt;/span&gt;&amp;gt;&amp;gt; = &lt;span style=&quot;color:#ffffff;&quot;&gt;repository&lt;/span&gt;.getAllProverbs()&lt;br&gt;        .&lt;span style=&quot;color:#ffc66d;font-style:italic;&quot;&gt;onStart &lt;/span&gt;&lt;span style=&quot;font-weight:bold;&quot;&gt;{&lt;br&gt;&lt;/span&gt;            &lt;span style=&quot;color:#ed94ff;&quot;&gt;_isLoading&lt;/span&gt;.&lt;span style=&quot;color:#ed94ff;&quot;&gt;value &lt;/span&gt;= true&lt;br&gt;        &lt;span style=&quot;font-weight:bold;&quot;&gt;}&lt;br&gt;&lt;/span&gt;&lt;span style=&quot;font-weight:bold;&quot;&gt;        &lt;/span&gt;.&lt;span style=&quot;color:#ffc66d;font-style:italic;&quot;&gt;onCompletion &lt;/span&gt;&lt;span style=&quot;font-weight:bold;&quot;&gt;{&lt;br&gt;&lt;/span&gt;            &lt;span style=&quot;color:#ed94ff;&quot;&gt;_isLoading&lt;/span&gt;.&lt;span style=&quot;color:#ed94ff;&quot;&gt;value &lt;/span&gt;= &lt;span style=&quot;color:#ed864a;&quot;&gt;false&lt;br&gt;&lt;/span&gt;&lt;span style=&quot;color:#ed864a;&quot;&gt;        &lt;/span&gt;&lt;span style=&quot;font-weight:bold;&quot;&gt;}&lt;br&gt;&lt;/span&gt;&lt;span style=&quot;font-weight:bold;&quot;&gt;        &lt;/span&gt;.&lt;span style=&quot;color:#ffc66d;font-style:italic;&quot;&gt;asLiveData&lt;/span&gt;(&lt;span style=&quot;color:#ed94ff;font-style:italic;&quot;&gt;viewModelScope&lt;/span&gt;.&lt;span style=&quot;color:#ed94ff;&quot;&gt;coroutineContext&lt;/span&gt;)&lt;br&gt;&lt;br&gt;&lt;br&gt;}&lt;/pre&gt;&lt;/div&gt;&lt;/pre&gt;&lt;/div&gt;" style="text;whiteSpace=wrap;html=1;fillColor=#000000;spacing=10;fontFamily=consolas;" parent="XZHRbtSJYfs60_z20I25-3" vertex="1">
          <mxGeometry y="40" width="610" height="310" as="geometry" />
        </mxCell>
        <mxCell id="YiPA6Wj24eaQREkGzXAe-13" value="&lt;font face=&quot;consolas&quot;&gt;&lt;b style=&quot;font-size: 18px;&quot;&gt;DalViewModel&lt;/b&gt;&lt;/font&gt;" style="rounded=0;whiteSpace=wrap;html=1;" parent="XZHRbtSJYfs60_z20I25-3" vertex="1">
          <mxGeometry width="610" height="40" as="geometry" />
        </mxCell>
        <mxCell id="XZHRbtSJYfs60_z20I25-4" value="" style="group" vertex="1" connectable="0" parent="1">
          <mxGeometry x="560" y="240" width="760" height="230" as="geometry" />
        </mxCell>
        <mxCell id="YiPA6Wj24eaQREkGzXAe-10" value="&lt;div style=&quot;background-color:#000000;color:#ebebeb;font-family:&#39;Consolas&#39;,monospace;font-size:10.5pt;&quot;&gt;&lt;pre&gt;&lt;div style=&quot;font-family: Consolas, monospace; font-size: 9.8pt;&quot;&gt;&lt;pre&gt;class &lt;span style=&quot;color:#ffffff;&quot;&gt;DalViewModelFactory&lt;/span&gt;(&lt;span style=&quot;color:#ed864a;&quot;&gt;private val &lt;/span&gt;&lt;span style=&quot;color:#ed94ff;&quot;&gt;repository&lt;/span&gt;: &lt;span style=&quot;color:#ffffff;&quot;&gt;DalRepository&lt;/span&gt;) : &lt;span style=&quot;color:#ffffff;&quot;&gt;ViewModelProvider&lt;/span&gt;.&lt;span style=&quot;color:#ffffff;&quot;&gt;Factory &lt;/span&gt;{&lt;br&gt;    &lt;span style=&quot;color:#ed864a;&quot;&gt;override fun &lt;/span&gt;&amp;lt;&lt;span style=&quot;color:#37cccc;font-weight:bold;&quot;&gt;T &lt;/span&gt;: &lt;span style=&quot;color:#ffffff;&quot;&gt;ViewModel&lt;/span&gt;&amp;gt; &lt;span style=&quot;color:#ffcf40;&quot;&gt;create&lt;/span&gt;(&lt;span style=&quot;color:#ffffff;&quot;&gt;modelClass&lt;/span&gt;: &lt;span style=&quot;color:#ffffff;&quot;&gt;Class&lt;/span&gt;&amp;lt;&lt;span style=&quot;color:#37cccc;font-weight:bold;&quot;&gt;T&lt;/span&gt;&amp;gt;): &lt;span style=&quot;color:#37cccc;font-weight:bold;&quot;&gt;T &lt;/span&gt;{&lt;br&gt;        &lt;span style=&quot;color:#ed864a;&quot;&gt;if &lt;/span&gt;(&lt;span style=&quot;color:#ffffff;&quot;&gt;modelClass&lt;/span&gt;.isAssignableFrom(&lt;span style=&quot;color:#ffffff;&quot;&gt;DalViewModel&lt;/span&gt;::&lt;span style=&quot;color:#ed864a;&quot;&gt;class&lt;/span&gt;.&lt;span style=&quot;color:#ed94ff;font-style:italic;&quot;&gt;java&lt;/span&gt;)) {&lt;br&gt;            &lt;span style=&quot;color:#a9b837;&quot;&gt;@Suppress&lt;/span&gt;(&lt;span style=&quot;color:#54b33e;&quot;&gt;&quot;UNCHECKED_CAST&quot;&lt;/span&gt;)&lt;br&gt;            &lt;span style=&quot;color:#ed864a;&quot;&gt;return &lt;/span&gt;DalViewModel(&lt;span style=&quot;color:#ed94ff;&quot;&gt;repository&lt;/span&gt;) &lt;span style=&quot;color:#ed864a;&quot;&gt;as &lt;/span&gt;&lt;span style=&quot;color:#37cccc;font-weight:bold;&quot;&gt;T&lt;br&gt;&lt;/span&gt;&lt;span style=&quot;color:#37cccc;font-weight:bold;&quot;&gt;        &lt;/span&gt;}&lt;br&gt;        &lt;span style=&quot;color:#ed864a;&quot;&gt;throw &lt;/span&gt;IllegalArgumentException(&lt;span style=&quot;color:#54b33e;&quot;&gt;&quot;Unknown ViewModel class&quot;&lt;/span&gt;)&lt;br&gt;    }&lt;br&gt;}&lt;/pre&gt;&lt;/div&gt;&lt;/pre&gt;&lt;/div&gt;" style="text;whiteSpace=wrap;html=1;fillColor=#000000;spacing=10;fontFamily=consolas;" parent="XZHRbtSJYfs60_z20I25-4" vertex="1">
          <mxGeometry y="40" width="760" height="190" as="geometry" />
        </mxCell>
        <mxCell id="YiPA6Wj24eaQREkGzXAe-11" value="&lt;font face=&quot;consolas&quot;&gt;&lt;b style=&quot;font-size: 18px;&quot;&gt;DalViewModelFactory&lt;/b&gt;&lt;/font&gt;" style="rounded=0;whiteSpace=wrap;html=1;" parent="XZHRbtSJYfs60_z20I25-4" vertex="1">
          <mxGeometry width="760" height="40" as="geometry" />
        </mxCell>
        <mxCell id="XZHRbtSJYfs60_z20I25-11" value="" style="group" vertex="1" connectable="0" parent="1">
          <mxGeometry x="-1640" y="-360" width="400" height="260" as="geometry" />
        </mxCell>
        <mxCell id="XZHRbtSJYfs60_z20I25-6" value="&lt;div style=&quot;background-color:#000000;color:#ebebeb;font-family:&#39;Consolas&#39;,monospace;font-size:10.5pt;&quot;&gt;&lt;pre&gt;&lt;div style=&quot;font-family: Consolas, monospace; font-size: 9.8pt;&quot;&gt;&lt;pre&gt;&lt;div style=&quot;font-family: Consolas, monospace; font-size: 9.8pt;&quot;&gt;&lt;pre&gt;@Entity(tableName = &lt;span style=&quot;color:#54b33e;&quot;&gt;&quot;proverb&quot;&lt;/span&gt;)&lt;br&gt;&lt;span style=&quot;color:#ed864a;&quot;&gt;class &lt;/span&gt;&lt;span style=&quot;color:#ffffff;&quot;&gt;Proverb &lt;/span&gt;(&lt;br&gt;&lt;br&gt;    &lt;span style=&quot;color:#a9b837;&quot;&gt;@PrimaryKey&lt;/span&gt;(autoGenerate = &lt;span style=&quot;color:#ed864a;&quot;&gt;true&lt;/span&gt;)&lt;br&gt;    &lt;span style=&quot;color:#a9b837;&quot;&gt;@ColumnInfo&lt;/span&gt;(name = &lt;span style=&quot;color:#54b33e;&quot;&gt;&quot;id&quot;&lt;/span&gt;)&lt;br&gt;    &lt;span style=&quot;color:#ed864a;&quot;&gt;val &lt;/span&gt;&lt;span style=&quot;color:#ed94ff;&quot;&gt;id&lt;/span&gt;: &lt;span style=&quot;color:#ffffff;&quot;&gt;Int &lt;/span&gt;= &lt;span style=&quot;color:#33ccff;font-weight:bold;&quot;&gt;0&lt;/span&gt;&lt;span style=&quot;color:#ed864a;font-weight:bold;&quot;&gt;,&lt;br&gt;&lt;/span&gt;&lt;span style=&quot;color:#ed864a;font-weight:bold;&quot;&gt;&lt;br&gt;&lt;/span&gt;&lt;span style=&quot;color:#ed864a;font-weight:bold;&quot;&gt;    &lt;/span&gt;&lt;span style=&quot;color:#a9b837;&quot;&gt;@ColumnInfo&lt;/span&gt;(name = &lt;span style=&quot;color:#54b33e;&quot;&gt;&quot;text&quot;&lt;/span&gt;&lt;span style=&quot;color:#ed864a;font-weight:bold;&quot;&gt;, &lt;/span&gt;defaultValue = &lt;span style=&quot;color:#54b33e;&quot;&gt;&quot;&quot;&lt;/span&gt;)&lt;br&gt;    &lt;span style=&quot;color:#ed864a;&quot;&gt;val &lt;/span&gt;&lt;span style=&quot;color:#ed94ff;&quot;&gt;text&lt;/span&gt;: &lt;span style=&quot;color:#ffffff;&quot;&gt;String &lt;/span&gt;= &lt;span style=&quot;color:#54b33e;&quot;&gt;&quot;&quot;&lt;/span&gt;&lt;span style=&quot;color:#ed864a;font-weight:bold;&quot;&gt;,&lt;br&gt;&lt;/span&gt;&lt;span style=&quot;color:#ed864a;font-weight:bold;&quot;&gt;&lt;br&gt;&lt;/span&gt;)&lt;/pre&gt;&lt;/div&gt;&lt;/pre&gt;&lt;/div&gt;&lt;/pre&gt;&lt;/div&gt;" style="text;whiteSpace=wrap;html=1;fillColor=#000000;spacing=10;fontFamily=consolas;" vertex="1" parent="XZHRbtSJYfs60_z20I25-11">
          <mxGeometry y="40" width="400" height="220" as="geometry" />
        </mxCell>
        <mxCell id="XZHRbtSJYfs60_z20I25-7" value="&lt;font face=&quot;consolas&quot;&gt;&lt;b style=&quot;font-size: 18px;&quot;&gt;Proverb&lt;/b&gt;&lt;/font&gt;" style="rounded=0;whiteSpace=wrap;html=1;" vertex="1" parent="XZHRbtSJYfs60_z20I25-11">
          <mxGeometry width="400" height="40" as="geometry" />
        </mxCell>
        <mxCell id="XZHRbtSJYfs60_z20I25-16" value="" style="group" vertex="1" connectable="0" parent="1">
          <mxGeometry x="-1120" y="280" width="400" height="180" as="geometry" />
        </mxCell>
        <mxCell id="XZHRbtSJYfs60_z20I25-14" value="&lt;div style=&quot;background-color:#000000;color:#ebebeb;font-family:&#39;Consolas&#39;,monospace;font-size:10.5pt;&quot;&gt;&lt;pre&gt;&lt;div style=&quot;font-family: Consolas, monospace; font-size: 9.8pt;&quot;&gt;&lt;pre&gt;&lt;div style=&quot;font-family: Consolas, monospace; font-size: 9.8pt;&quot;&gt;&lt;pre&gt;&lt;div style=&quot;font-family: Consolas, monospace; font-size: 9.8pt;&quot;&gt;&lt;pre&gt;&lt;div style=&quot;font-family: Consolas, monospace; font-size: 9.8pt;&quot;&gt;&lt;pre&gt;class &lt;span style=&quot;color:#ffffff;&quot;&gt;DalRepository&lt;/span&gt;(&lt;span style=&quot;color:#ed864a;&quot;&gt;private val &lt;/span&gt;&lt;span style=&quot;color:#ed94ff;&quot;&gt;dalDao&lt;/span&gt;: &lt;span style=&quot;color:#ffffff;&quot;&gt;DalDao&lt;/span&gt;) {&lt;br&gt;&lt;br&gt;    &lt;span style=&quot;color:#ed864a;&quot;&gt;fun &lt;/span&gt;&lt;span style=&quot;color:#ffcf40;&quot;&gt;getAllProverbs&lt;/span&gt;(): &lt;span style=&quot;color:#ffffff;&quot;&gt;Flow&lt;/span&gt;&amp;lt;&lt;span style=&quot;color:#ffffff;&quot;&gt;List&lt;/span&gt;&amp;lt;&lt;span style=&quot;color:#ffffff;&quot;&gt;Proverb&lt;/span&gt;&amp;gt;&amp;gt; {&lt;br&gt;        &lt;span style=&quot;color:#ed864a;&quot;&gt;val &lt;/span&gt;&lt;span style=&quot;color:#ffffff;&quot;&gt;res1 &lt;/span&gt;= &lt;span style=&quot;color:#ed94ff;&quot;&gt;dalDao&lt;/span&gt;.getAllProverbs()&lt;br&gt;        &lt;span style=&quot;color:#ed864a;&quot;&gt;return &lt;/span&gt;&lt;span style=&quot;color:#ffffff;&quot;&gt;res1&lt;br&gt;&lt;/span&gt;&lt;span style=&quot;color:#ffffff;&quot;&gt;    &lt;/span&gt;}&lt;/pre&gt;&lt;/div&gt;&lt;/pre&gt;&lt;/div&gt;&lt;/pre&gt;&lt;/div&gt;&lt;/pre&gt;&lt;/div&gt;&lt;/pre&gt;&lt;/div&gt;" style="text;whiteSpace=wrap;html=1;fillColor=#000000;spacing=10;fontFamily=consolas;" vertex="1" parent="XZHRbtSJYfs60_z20I25-16">
          <mxGeometry y="40" width="400" height="140" as="geometry" />
        </mxCell>
        <mxCell id="XZHRbtSJYfs60_z20I25-15" value="&lt;font face=&quot;consolas&quot;&gt;&lt;b style=&quot;font-size: 18px;&quot;&gt;DalRepository&lt;/b&gt;&lt;/font&gt;" style="rounded=0;whiteSpace=wrap;html=1;" vertex="1" parent="XZHRbtSJYfs60_z20I25-16">
          <mxGeometry width="400" height="40" as="geometry" />
        </mxCell>
        <mxCell id="XZHRbtSJYfs60_z20I25-20" value="" style="group" vertex="1" connectable="0" parent="1">
          <mxGeometry x="-1200" y="-420" width="480" height="660" as="geometry" />
        </mxCell>
        <mxCell id="XZHRbtSJYfs60_z20I25-18" value="&lt;div style=&quot;background-color:#000000;color:#ebebeb;font-family:&#39;Consolas&#39;,monospace;font-size:10.5pt;&quot;&gt;&lt;pre&gt;&lt;div style=&quot;font-family: Consolas, monospace; font-size: 9.8pt;&quot;&gt;&lt;pre&gt;&lt;div style=&quot;font-family: Consolas, monospace; font-size: 9.8pt;&quot;&gt;&lt;pre&gt;&lt;div style=&quot;font-family: Consolas, monospace; font-size: 9.8pt;&quot;&gt;&lt;pre&gt;&lt;div style=&quot;font-family: Consolas, monospace; font-size: 9.8pt;&quot;&gt;&lt;pre&gt;&lt;div style=&quot;font-family: Consolas, monospace; font-size: 9.8pt;&quot;&gt;&lt;pre&gt;@Database(&lt;br&gt;    entities = [&lt;br&gt;        (&lt;span style=&quot;color:#ffffff;&quot;&gt;Proverb&lt;/span&gt;::&lt;span style=&quot;color:#ed864a;&quot;&gt;class&lt;/span&gt;)&lt;span style=&quot;color:#ed864a;font-weight:bold;&quot;&gt;,&lt;br&gt;&lt;/span&gt;&lt;span style=&quot;color:#ed864a;font-weight:bold;&quot;&gt;    &lt;/span&gt;]&lt;span style=&quot;color:#ed864a;font-weight:bold;&quot;&gt;,&lt;br&gt;&lt;/span&gt;&lt;span style=&quot;color:#ed864a;font-weight:bold;&quot;&gt;    &lt;/span&gt;version = &lt;span style=&quot;color:#33ccff;font-weight:bold;&quot;&gt;1&lt;/span&gt;&lt;span style=&quot;color:#ed864a;font-weight:bold;&quot;&gt;,&lt;br&gt;&lt;/span&gt;&lt;span style=&quot;color:#7ec3e6;&quot;&gt;    &lt;/span&gt;exportSchema = &lt;span style=&quot;color:#ed864a;&quot;&gt;true&lt;br&gt;&lt;/span&gt;)&lt;br&gt;&lt;span style=&quot;color:#ed864a;&quot;&gt;abstract class &lt;/span&gt;&lt;span style=&quot;color:#ffffff;&quot;&gt;DalDataBase &lt;/span&gt;: RoomDatabase() {&lt;br&gt;&lt;br&gt;    &lt;span style=&quot;color:#ed864a;&quot;&gt;abstract fun &lt;/span&gt;&lt;span style=&quot;color:#ffcf40;&quot;&gt;dalDao&lt;/span&gt;(): &lt;span style=&quot;color:#ffffff;&quot;&gt;DalDao&lt;br&gt;&lt;/span&gt;&lt;span style=&quot;color:#ffffff;&quot;&gt;&lt;br&gt;&lt;/span&gt;&lt;span style=&quot;color:#ffffff;&quot;&gt;&lt;br&gt;&lt;/span&gt;&lt;span style=&quot;color:#ffffff;&quot;&gt;    &lt;/span&gt;&lt;span style=&quot;color:#ed864a;&quot;&gt;companion object &lt;/span&gt;{&lt;br&gt;&lt;br&gt;&lt;span style=&quot;color:#7ec3e6;&quot;&gt;        &lt;/span&gt;&lt;span style=&quot;color:#ed864a;&quot;&gt;private var &lt;/span&gt;&lt;span style=&quot;color:#ed94ff;&quot;&gt;INSTANCE&lt;/span&gt;: &lt;span style=&quot;color:#ffffff;&quot;&gt;DalDataBase&lt;/span&gt;? = &lt;span style=&quot;color:#ed864a;&quot;&gt;null&lt;br&gt;&lt;/span&gt;&lt;span style=&quot;color:#ed864a;&quot;&gt;&lt;br&gt;&lt;/span&gt;&lt;span style=&quot;color:#ed864a;&quot;&gt;        fun &lt;/span&gt;&lt;span style=&quot;color:#ffcf40;&quot;&gt;getDatabase&lt;/span&gt;(&lt;span style=&quot;color:#ffffff;&quot;&gt;context&lt;/span&gt;: &lt;span style=&quot;color:#ffffff;&quot;&gt;Context&lt;/span&gt;): &lt;span style=&quot;color:#ffffff;&quot;&gt;DalDataBase &lt;/span&gt;{&lt;br&gt;            &lt;span style=&quot;font-style:italic;&quot;&gt;synchronized&lt;/span&gt;(&lt;span style=&quot;color:#ed864a;&quot;&gt;this&lt;/span&gt;) &lt;span style=&quot;font-weight:bold;&quot;&gt;{&lt;br&gt;&lt;/span&gt;&lt;span style=&quot;font-weight:bold;&quot;&gt;                &lt;/span&gt;&lt;span style=&quot;color:#ed864a;&quot;&gt;var &lt;/span&gt;&lt;span style=&quot;color:#ffffff;&quot;&gt;instance &lt;/span&gt;= &lt;span style=&quot;color:#ed94ff;&quot;&gt;INSTANCE&lt;br&gt;&lt;/span&gt;&lt;span style=&quot;color:#ed94ff;&quot;&gt;&lt;br&gt;&lt;/span&gt;&lt;span style=&quot;color:#ed94ff;&quot;&gt;                &lt;/span&gt;&lt;span style=&quot;color:#ed864a;&quot;&gt;if &lt;/span&gt;(&lt;span style=&quot;color:#ffffff;&quot;&gt;instance &lt;/span&gt;== &lt;span style=&quot;color:#ed864a;&quot;&gt;null&lt;/span&gt;) {&lt;br&gt;                    &lt;span style=&quot;color:#ffffff;&quot;&gt;instance &lt;/span&gt;= &lt;span style=&quot;color:#ffffff;&quot;&gt;Room&lt;/span&gt;.databaseBuilder(&lt;br&gt;                        &lt;span style=&quot;color:#ffffff;&quot;&gt;context&lt;/span&gt;.&lt;span style=&quot;color:#ed94ff;font-style:italic;&quot;&gt;applicationContext&lt;/span&gt;&lt;span style=&quot;color:#ed864a;font-weight:bold;&quot;&gt;,&lt;br&gt;&lt;/span&gt;&lt;span style=&quot;color:#ed864a;font-weight:bold;&quot;&gt;                        &lt;/span&gt;&lt;span style=&quot;color:#ffffff;&quot;&gt;DalDataBase&lt;/span&gt;::&lt;span style=&quot;color:#ed864a;&quot;&gt;class&lt;/span&gt;.&lt;span style=&quot;color:#ed94ff;font-style:italic;&quot;&gt;java&lt;/span&gt;&lt;span style=&quot;color:#ed864a;font-weight:bold;&quot;&gt;,&lt;br&gt;&lt;/span&gt;&lt;span style=&quot;color:#ed864a;font-weight:bold;&quot;&gt;                        &lt;/span&gt;&lt;span style=&quot;color:#54b33e;&quot;&gt;&quot;dal.db&quot;&lt;br&gt;&lt;/span&gt;&lt;span style=&quot;color:#54b33e;&quot;&gt;                    &lt;/span&gt;)&lt;br&gt;&lt;span style=&quot;color:#7ec3e6;&quot;&gt;                        &lt;/span&gt;.createFromAsset(&lt;span style=&quot;color:#54b33e;&quot;&gt;&quot;dal.db&quot;&lt;/span&gt;)&lt;br&gt;                        .build()&lt;br&gt;&lt;br&gt;                    &lt;span style=&quot;color:#ed94ff;&quot;&gt;INSTANCE &lt;/span&gt;= &lt;span style=&quot;color:#ffffff;&quot;&gt;instance&lt;br&gt;&lt;/span&gt;&lt;span style=&quot;color:#ffffff;&quot;&gt;                &lt;/span&gt;}&lt;br&gt;&lt;br&gt;                &lt;span style=&quot;color:#ed864a;&quot;&gt;return &lt;/span&gt;&lt;span style=&quot;color:#ffffff;&quot;&gt;instance&lt;br&gt;&lt;/span&gt;&lt;span style=&quot;color:#ffffff;&quot;&gt;            &lt;/span&gt;&lt;span style=&quot;font-weight:bold;&quot;&gt;}&lt;br&gt;&lt;/span&gt;&lt;span style=&quot;font-weight:bold;&quot;&gt;        &lt;/span&gt;}&lt;br&gt;    }&lt;br&gt;}&lt;/pre&gt;&lt;/div&gt;&lt;/pre&gt;&lt;/div&gt;&lt;/pre&gt;&lt;/div&gt;&lt;/pre&gt;&lt;/div&gt;&lt;/pre&gt;&lt;/div&gt;&lt;/pre&gt;&lt;/div&gt;" style="text;whiteSpace=wrap;html=1;fillColor=#000000;spacing=10;fontFamily=consolas;" vertex="1" parent="XZHRbtSJYfs60_z20I25-20">
          <mxGeometry y="37.690000000000055" width="480" height="622.31" as="geometry" />
        </mxCell>
        <mxCell id="XZHRbtSJYfs60_z20I25-19" value="&lt;font face=&quot;consolas&quot;&gt;&lt;b style=&quot;font-size: 18px;&quot;&gt;DalDataBase&lt;/b&gt;&lt;/font&gt;" style="rounded=0;whiteSpace=wrap;html=1;" vertex="1" parent="XZHRbtSJYfs60_z20I25-20">
          <mxGeometry width="480" height="37.69" as="geometry" />
        </mxCell>
        <mxCell id="XZHRbtSJYfs60_z20I25-21" value="" style="rounded=0;whiteSpace=wrap;html=1;fillColor=none;strokeColor=#FFFF33;" vertex="1" parent="1">
          <mxGeometry x="-400" y="-62" width="93" height="16" as="geometry" />
        </mxCell>
        <mxCell id="XZHRbtSJYfs60_z20I25-22" value="" style="curved=1;endArrow=classic;html=1;rounded=0;strokeColor=#FFFF33;strokeWidth=1;exitX=0.5;exitY=0;exitDx=0;exitDy=0;entryX=1;entryY=0.5;entryDx=0;entryDy=0;" edge="1" parent="1" source="XZHRbtSJYfs60_z20I25-21" target="XZHRbtSJYfs60_z20I25-19">
          <mxGeometry width="50" height="50" relative="1" as="geometry">
            <mxPoint x="-302" y="-104" as="sourcePoint" />
            <mxPoint x="-50" y="-272" as="targetPoint" />
            <Array as="points">
              <mxPoint x="-360" y="-400" />
            </Array>
          </mxGeometry>
        </mxCell>
        <mxCell id="XZHRbtSJYfs60_z20I25-23" value="" style="rounded=0;whiteSpace=wrap;html=1;fillColor=none;strokeColor=#FFFF33;" vertex="1" parent="1">
          <mxGeometry x="-494" y="-46" width="108" height="16" as="geometry" />
        </mxCell>
        <mxCell id="XZHRbtSJYfs60_z20I25-24" value="" style="curved=1;endArrow=classic;html=1;rounded=0;strokeColor=#FFFF33;strokeWidth=1;exitX=0.5;exitY=1;exitDx=0;exitDy=0;entryX=1;entryY=0.5;entryDx=0;entryDy=0;" edge="1" parent="1" source="XZHRbtSJYfs60_z20I25-23" target="XZHRbtSJYfs60_z20I25-15">
          <mxGeometry width="50" height="50" relative="1" as="geometry">
            <mxPoint x="-343" y="-52" as="sourcePoint" />
            <mxPoint x="-710" y="-401" as="targetPoint" />
            <Array as="points">
              <mxPoint x="-440" y="300" />
            </Array>
          </mxGeometry>
        </mxCell>
        <mxCell id="XZHRbtSJYfs60_z20I25-25" value="" style="rounded=0;whiteSpace=wrap;html=1;fillColor=none;strokeColor=#FFFF33;" vertex="1" parent="1">
          <mxGeometry x="-989" y="-213" width="63" height="16" as="geometry" />
        </mxCell>
        <mxCell id="XZHRbtSJYfs60_z20I25-26" value="" style="curved=1;endArrow=classic;html=1;rounded=0;strokeColor=#FFFF33;strokeWidth=1;exitX=0.5;exitY=1;exitDx=0;exitDy=0;entryX=1;entryY=0.5;entryDx=0;entryDy=0;" edge="1" parent="1" source="XZHRbtSJYfs60_z20I25-25" target="XZHRbtSJYfs60_z20I25-10">
          <mxGeometry width="50" height="50" relative="1" as="geometry">
            <mxPoint x="-531" y="231" as="sourcePoint" />
            <mxPoint x="-525" y="370" as="targetPoint" />
            <Array as="points">
              <mxPoint x="-1010" y="-40" />
            </Array>
          </mxGeometry>
        </mxCell>
        <mxCell id="XZHRbtSJYfs60_z20I25-28" value="" style="curved=1;endArrow=classic;html=1;rounded=0;strokeColor=#FFFF33;strokeWidth=1;exitX=0;exitY=0.5;exitDx=0;exitDy=0;entryX=1;entryY=0.5;entryDx=0;entryDy=0;" edge="1" parent="1" source="XZHRbtSJYfs60_z20I25-27" target="XZHRbtSJYfs60_z20I25-7">
          <mxGeometry width="50" height="50" relative="1" as="geometry">
            <mxPoint x="-1811" y="-254" as="sourcePoint" />
            <mxPoint x="-1630" y="-310" as="targetPoint" />
            <Array as="points">
              <mxPoint x="-1180" y="-310" />
            </Array>
          </mxGeometry>
        </mxCell>
        <mxCell id="XZHRbtSJYfs60_z20I25-12" value="" style="group" vertex="1" connectable="0" parent="1">
          <mxGeometry x="-1640" y="-60" width="400" height="260" as="geometry" />
        </mxCell>
        <mxCell id="XZHRbtSJYfs60_z20I25-9" value="&lt;div style=&quot;background-color:#000000;color:#ebebeb;font-family:&#39;Consolas&#39;,monospace;font-size:10.5pt;&quot;&gt;&lt;pre&gt;&lt;div style=&quot;font-family: Consolas, monospace; font-size: 9.8pt;&quot;&gt;&lt;pre&gt;&lt;div style=&quot;font-family: Consolas, monospace; font-size: 9.8pt;&quot;&gt;&lt;pre&gt;&lt;div style=&quot;font-family: Consolas, monospace; font-size: 9.8pt;&quot;&gt;&lt;pre&gt;@Dao&lt;br&gt;&lt;span style=&quot;color:#ed864a;&quot;&gt;interface &lt;/span&gt;&lt;span style=&quot;color:#ffffff;&quot;&gt;DalDao &lt;/span&gt;{&lt;br&gt;&lt;span style=&quot;color:#7ec3e6;&quot;&gt;&lt;br&gt;&lt;/span&gt;&lt;span style=&quot;color:#7ec3e6;&quot;&gt;    &lt;/span&gt;&lt;span style=&quot;color:#a9b837;&quot;&gt;@Query&lt;/span&gt;(&lt;span style=&quot;color:#54b33e;&quot;&gt;&quot;&lt;/span&gt;&lt;span style=&quot;color:#54b33e;background-color:#153811;&quot;&gt;SELECT * FROM Proverb&lt;/span&gt;&lt;span style=&quot;color:#54b33e;&quot;&gt;&quot;&lt;/span&gt;)&lt;br&gt;    &lt;span style=&quot;color:#ed864a;&quot;&gt;fun &lt;/span&gt;&lt;span style=&quot;color:#ffcf40;&quot;&gt;getAllProverbs&lt;/span&gt;(): &lt;span style=&quot;color:#ffffff;&quot;&gt;Flow&lt;/span&gt;&amp;lt;&lt;span style=&quot;color:#ffffff;&quot;&gt;List&lt;/span&gt;&amp;lt;&lt;span style=&quot;color:#ffffff;&quot;&gt;Proverb&lt;/span&gt;&amp;gt;&amp;gt;&lt;br&gt;&lt;br&gt;    &lt;span style=&quot;color:#a9b837;&quot;&gt;@Query&lt;/span&gt;(&lt;span style=&quot;color:#54b33e;&quot;&gt;&quot;&lt;/span&gt;&lt;span style=&quot;color:#54b33e;background-color:#153811;&quot;&gt;SELECT * FROM Proverb&lt;/span&gt;&lt;span style=&quot;color:#54b33e;&quot;&gt;&quot;&lt;/span&gt;)&lt;br&gt;    &lt;span style=&quot;color:#ed864a;&quot;&gt;fun &lt;/span&gt;&lt;span style=&quot;color:#ffcf40;&quot;&gt;getAll&lt;/span&gt;(): &lt;span style=&quot;color:#ffffff;&quot;&gt;List&lt;/span&gt;&amp;lt;&lt;span style=&quot;color:#ffffff;&quot;&gt;Proverb&lt;/span&gt;&amp;gt;&lt;br/&gt;}&lt;/pre&gt;&lt;/div&gt;&lt;/pre&gt;&lt;/div&gt;&lt;/pre&gt;&lt;/div&gt;&lt;/pre&gt;&lt;/div&gt;" style="text;whiteSpace=wrap;html=1;fillColor=#000000;spacing=10;fontFamily=consolas;" vertex="1" parent="XZHRbtSJYfs60_z20I25-12">
          <mxGeometry y="40" width="400" height="220" as="geometry" />
        </mxCell>
        <mxCell id="XZHRbtSJYfs60_z20I25-10" value="&lt;font face=&quot;consolas&quot;&gt;&lt;b style=&quot;font-size: 18px;&quot;&gt;DalDao&lt;/b&gt;&lt;/font&gt;" style="rounded=0;whiteSpace=wrap;html=1;" vertex="1" parent="XZHRbtSJYfs60_z20I25-12">
          <mxGeometry width="400" height="40" as="geometry" />
        </mxCell>
        <mxCell id="XZHRbtSJYfs60_z20I25-27" value="" style="rounded=0;whiteSpace=wrap;html=1;fillColor=none;strokeColor=#FFFF33;" vertex="1" parent="1">
          <mxGeometry x="-1121" y="-323" width="58" height="16" as="geometry" />
        </mxCell>
      </root>
    </mxGraphModel>
  </diagram>
</mxfile>
